<svg width="26" height="26" viewBox="0 0 26 26" fill="none" xmlns="http://www.w3.org/2000/svg">
<path d="M7.5835 19.5001C6.39183 19.5001 5.42766 20.4751 5.42766 21.6667C5.42766 22.8584 6.39183 23.8334 7.5835 23.8334C8.77516 23.8334 9.75016 22.8584 9.75016 21.6667C9.75016 20.4751 8.77516 19.5001 7.5835 19.5001ZM18.4168 19.5001C17.2252 19.5001 16.261 20.4751 16.261 21.6667C16.261 22.8584 17.2252 23.8334 18.4168 23.8334C19.6085 23.8334 20.5835 22.8584 20.5835 21.6667C20.5835 20.4751 19.6085 19.5001 18.4168 19.5001ZM16.846 14.0834C17.6585 14.0834 18.3735 13.6392 18.7418 12.9676L22.6202 5.93675C23.021 5.22175 22.501 4.33341 21.6777 4.33341H5.64433L4.626 2.16675H1.0835V4.33341H3.25016L7.15016 12.5559L5.68766 15.1992C4.89683 16.6509 5.93683 18.4167 7.5835 18.4167H20.5835V16.2501H7.5835L8.77516 14.0834H16.846ZM6.6735 6.50008H19.836L16.846 11.9167H9.241L6.6735 6.50008Z" fill="white"/>
</svg>
