<svg width="26" height="26" viewBox="0 0 26 26" fill="none" xmlns="http://www.w3.org/2000/svg">
<path d="M17.5439 15.8286H16.6405L16.3203 15.5199C17.441 14.2163 18.1156 12.5239 18.1156 10.6828C18.1156 6.57762 14.788 3.25 10.6828 3.25C6.57762 3.25 3.25 6.57762 3.25 10.6828C3.25 14.788 6.57762 18.1156 10.6828 18.1156C12.5239 18.1156 14.2163 17.441 15.5199 16.3203L15.8286 16.6405V17.5439L21.5462 23.25L23.25 21.5462L17.5439 15.8286ZM10.6828 15.8286C7.83548 15.8286 5.53702 13.5302 5.53702 10.6828C5.53702 7.83548 7.83548 5.53702 10.6828 5.53702C13.5302 5.53702 15.8286 7.83548 15.8286 10.6828C15.8286 13.5302 13.5302 15.8286 10.6828 15.8286Z" fill="white"/>
</svg>
