<svg width="26" height="26" viewBox="0 0 26 26" fill="none" xmlns="http://www.w3.org/2000/svg">
<path d="M12.9998 2.16675C7.01984 2.16675 2.1665 7.02008 2.1665 13.0001C2.1665 18.9801 7.01984 23.8334 12.9998 23.8334C18.9798 23.8334 23.8332 18.9801 23.8332 13.0001C23.8332 7.02008 18.9798 2.16675 12.9998 2.16675ZM7.659 19.8034C8.12484 18.8284 10.9632 17.8751 12.9998 17.8751C15.0365 17.8751 17.8857 18.8284 18.3407 19.8034C16.8673 20.9734 15.0148 21.6667 12.9998 21.6667C10.9848 21.6667 9.13234 20.9734 7.659 19.8034ZM19.8898 18.2326C18.3407 16.3476 14.5815 15.7084 12.9998 15.7084C11.4182 15.7084 7.659 16.3476 6.10984 18.2326C5.00484 16.7809 4.33317 14.9717 4.33317 13.0001C4.33317 8.22258 8.22234 4.33341 12.9998 4.33341C17.7773 4.33341 21.6665 8.22258 21.6665 13.0001C21.6665 14.9717 20.9948 16.7809 19.8898 18.2326ZM12.9998 6.50008C10.8982 6.50008 9.20817 8.19008 9.20817 10.2917C9.20817 12.3934 10.8982 14.0834 12.9998 14.0834C15.1015 14.0834 16.7915 12.3934 16.7915 10.2917C16.7915 8.19008 15.1015 6.50008 12.9998 6.50008ZM12.9998 11.9167C12.1007 11.9167 11.3748 11.1909 11.3748 10.2917C11.3748 9.39258 12.1007 8.66675 12.9998 8.66675C13.899 8.66675 14.6248 9.39258 14.6248 10.2917C14.6248 11.1909 13.899 11.9167 12.9998 11.9167Z" fill="white"/>
</svg>
